<svg xmlns="http://www.w3.org/2000/svg" viewBox="0 0 512.002 512.002" xmlns:v="https://vecta.io/nano"><path d="M343.752 406.255l37.656-30.597 52.447 64.548-37.656 30.597z" fill="#b76035"/><path d="M364.377 389.503l17.038-13.844 52.447 64.548-17.038 13.844z" fill="#a04c27"/><path d="M314.182 430.303l96.79-78.65a5 5 0 0 0 .727-7.032l-21.028-25.88a5 5 0 0 0-7.032-.727l-96.79 78.65a5 5 0 0 0-.727 7.032l21.028 25.88a5 5 0 0 0 7.032.727z" fill="#b76035"/><path d="M400.692 360.007l10.28-8.354a5 5 0 0 0 .727-7.032l-21.028-25.88a5 5 0 0 0-7.032-.727l-10.28 8.354 27.333 33.638z" fill="#a04c27"/><path d="M305.452 381.548L60.545 80.152a5 5 0 0 1-1.083-2.549l-8.52-69.995 284.232 349.79-29.723 24.15z" fill="#b7c1ca"/><path d="M365.036 333.132L120.128 31.736c-.594-.73-1.382-1.28-2.273-1.58L51.083 7.494l284.232 349.79 29.72-24.15z" fill="#6b6c8a"/><path d="M365.037 333.132l-12.117 9.848L109.03 42.834c-.594-.73-1.382-1.28-2.273-1.58L67.76 28.02 51.085 7.493l66.77 22.662a5.01 5.01 0 0 1 2.273 1.581l244.908 301.396z" fill="#5d5f7a"/><circle cx="348.914" cy="374.154" r="39.24" fill="#ffdba9"/><path d="M373.655 404.617c-9.998 8.128-22.785 10.518-34.382 7.578 5.35-1.36 10.498-3.87 15.056-7.578 16.826-13.667 19.376-38.38 5.71-55.208a38.98 38.98 0 0 0-20.815-13.287c14.357-3.65 30.183 1.03 40.14 13.287 13.666 16.826 11.117 41.54-5.71 55.208z" fill="#ffc473"/><circle cx="427.785" cy="471.235" r="33.27" fill="#b76035"/><path d="M448.77 497.046c-10.948 8.898-25.844 9.688-37.422 3.11 5.48-.93 10.807-3.24 15.427-6.988 14.257-11.577 16.426-32.533 4.84-46.79-2.69-3.31-5.88-5.97-9.368-7.958 11.427-1.92 23.535 2.2 31.363 11.827 11.587 14.266 9.417 35.212-4.84 46.8z" fill="#a04c27"/><path d="M115.822 470.83l-37.656-30.597 52.447-64.548 37.656 30.597z" fill="#b76035"/><path d="M95.204 454.073l-17.038-13.844 52.447-64.548 17.038 13.844z" fill="#a04c27"/><path d="M197.818 430.303l-96.79-78.65a5 5 0 0 1-.727-7.032l21.028-25.88a5 5 0 0 1 7.032-.727l96.79 78.65a5 5 0 0 1 .727 7.032l-21.028 25.88a5 5 0 0 1-7.032.727z" fill="#b76035"/><path d="M111.308 360.007l-10.28-8.354a5 5 0 0 1-.727-7.032l21.028-25.88a5 5 0 0 1 7.032-.727l10.28 8.354-27.333 33.638z" fill="#a04c27"/><path d="M206.548 381.548L451.456 80.152a5 5 0 0 0 1.083-2.549l8.52-69.996-284.232 349.8 29.722 24.15z" fill="#b7c1ca"/><path d="M146.965 333.132L391.873 31.736c.594-.73 1.382-1.28 2.273-1.58l66.772-22.66-284.232 349.788-29.72-24.15z" fill="#6b6c8a"/><path d="M146.964 333.132l12.117 9.848L402.97 42.834c.594-.73 1.382-1.28 2.273-1.58l38.996-13.234 16.676-20.525-66.77 22.662a5.01 5.01 0 0 0-2.273 1.581L146.964 333.132z" fill="#5d5f7a"/><circle cx="163.092" cy="374.154" r="39.24" fill="#ffdba9"/><path d="M138.346 404.617c9.998 8.128 22.785 10.518 34.382 7.578-5.35-1.36-10.498-3.87-15.057-7.578-16.826-13.667-19.376-38.38-5.71-55.208a38.98 38.98 0 0 1 20.815-13.287c-14.357-3.65-30.183 1.03-40.14 13.287-13.665 16.826-11.116 41.54 5.7 55.208z" fill="#ffc473"/><circle cx="84.211" cy="471.235" r="33.27" fill="#b76035"/><path d="M63.232 497.046c10.948 8.898 25.844 9.688 37.422 3.11-5.48-.93-10.807-3.24-15.427-6.988-14.257-11.577-16.426-32.533-4.84-46.79 2.69-3.31 5.88-5.97 9.368-7.958-11.427-1.92-23.535 2.2-31.363 11.827-11.587 14.266-9.417 35.212 4.84 46.8z" fill="#a04c27"/><path d="M436.322 431.37l-41.143-50.633.226-1.77c.18-1.74.253-3.473.242-5.198l20.054-16.296a12.42 12.42 0 0 0 4.552-8.414c.343-3.32-.628-6.576-2.733-9.166l-21.027-25.878c-4.345-5.35-12.232-6.166-17.58-1.82l-12.785 10.39-51.002-62.766 37.828-46.553c2.612-3.214 2.124-7.937-1.09-10.547s-7.938-2.124-10.547 1.09L209.177 366.423a46.29 46.29 0 0 0-11.113-23.272L450.47 32.526l-5.29 43.456-74.126 91.223a7.5 7.5 0 0 0 1.091 10.547 7.5 7.5 0 0 0 10.547-1.091l74.58-91.78a12.47 12.47 0 0 0 2.707-6.372L468.5 8.51c.287-2.365-.58-4.648-2.207-6.246a7.36 7.36 0 0 0-.599-.524c-.192-.16-.388-.31-.594-.45l-.043-.027c-1.895-1.257-4.3-1.635-6.55-.874l-66.773 22.66c-2.23.757-4.194 2.124-5.68 3.953L256 187.057 182.644 96.78a7.5 7.5 0 0 0-10.547-1.091 7.5 7.5 0 0 0-1.091 10.547l75.333 92.71-15.01 18.474L73.308 22.955l41.453 14.068 26.385 32.47a7.5 7.5 0 0 0 10.547 1.091 7.5 7.5 0 0 0 1.091-10.547l-26.838-33.03c-1.487-1.83-3.45-3.196-5.682-3.953L53.493.394c-2.25-.763-4.662-.384-6.56.88-.01.006-.018.01-.027.017-.21.14-.41.296-.607.46-.2.16-.394.325-.576.502-.007.007-.013.014-.02.02-1.625 1.597-2.5 3.88-2.203 6.242l8.52 69.993c.283 2.34 1.22 4.545 2.707 6.375l142.15 174.938-51.002 62.766-12.786-10.4c-5.35-4.345-13.235-3.53-17.58 1.82l-21.03 25.878a12.42 12.42 0 0 0-2.733 9.167 12.41 12.41 0 0 0 4.551 8.413l20.055 16.297c-.01 1.724.062 3.458.242 5.198.06.593.144 1.18.226 1.77L75.68 431.37c-9.08 1.926-17.17 6.848-23.105 14.153-14.175 17.444-11.516 43.17 5.93 57.346 7.337 5.962 16.306 9.133 25.63 9.133a41.45 41.45 0 0 0 4.271-.221c10.832-1.12 20.577-6.39 27.444-14.84 5.936-7.305 9.1-16.23 9.127-25.512l41.163-50.66c2.31-.152 4.6-.466 6.876-.957l20.074 16.312a12.4 12.4 0 0 0 7.858 2.8c.434 0 .87-.022 1.308-.067a12.41 12.41 0 0 0 8.413-4.551l21.03-25.878a12.42 12.42 0 0 0 2.733-9.167 12.41 12.41 0 0 0-4.551-8.413l-12.784-10.388L256 332.582l38.904 47.878-12.783 10.387a12.42 12.42 0 0 0-4.552 8.414c-.343 3.32.628 6.576 2.733 9.166l21.028 25.878a12.42 12.42 0 0 0 8.414 4.552c.438.045.875.067 1.308.067a12.4 12.4 0 0 0 7.858-2.8l20.074-16.312a47.18 47.18 0 0 0 6.876.957l41.163 50.658c.027 9.28 3.19 18.207 9.127 25.51 6.867 8.45 16.612 13.722 27.444 14.842 1.428.147 2.853.22 4.27.22 9.324 0 18.295-3.17 25.632-9.133 17.444-14.176 20.104-39.9 5.928-57.346-5.932-7.305-14.022-12.228-23.102-14.153zM66.82 75.982l-5.29-43.456 160.02 196.93-15.012 18.474L66.82 75.982zm330.42-38.96l41.453-14.068L186.285 333.58c-7.6-4.36-16.2-6.482-25.052-6.117L397.24 37.023zM107.695 347.41l17.876-22 11.878 9.652a46.83 46.83 0 0 0-10.635 9.62 46.85 46.85 0 0 0-7.241 12.379l-11.878-9.652zm-3.484 140.07c-8.96 11.03-25.224 12.71-36.25 3.75s-12.71-25.223-3.75-36.25c5.087-6.26 12.524-9.508 20.024-9.508 5.712 0 11.458 1.885 16.227 5.76a25.6 25.6 0 0 1 3.748 36.249zm16.453-34.526c-2.556-5.103-6.182-9.654-10.744-13.36s-9.76-6.325-15.277-7.782l27.913-34.35c2.82 4.902 6.535 9.3 11.057 12.975a46.5 46.5 0 0 0 14.976 8.152l-27.925 34.367zm45.69-47.217a31.54 31.54 0 0 1-23.285-6.94c-6.58-5.347-10.685-12.938-11.557-21.37s1.592-16.704 6.94-23.285 12.938-10.685 21.37-11.557a32.32 32.32 0 0 1 3.324-.172c7.26 0 14.248 2.47 19.96 7.112 6.58 5.347 10.685 12.938 11.557 21.37s-1.592 16.704-6.94 23.285-12.936 10.685-21.37 11.557zm52.128-4.827l-17.876 22-11.9-9.67c3.93-2.572 7.54-5.768 10.656-9.603 3.08-3.79 5.5-7.963 7.24-12.38l11.88 9.652zM386.43 325.41l17.876 22-11.878 9.652a46.85 46.85 0 0 0-7.241-12.379 46.83 46.83 0 0 0-10.635-9.62l11.878-9.652zm-35.662 2.052c-8.836-.364-17.46 1.756-25.05 6.117l-35.264-43.397 15.01-18.474 45.304 55.754zm-85.105-6.773l15.012-18.474 33.263 40.935c-5.822 6.538-9.66 14.543-11.113 23.272L265.662 320.7zm45.73 102.218l-17.876-22 11.878-9.652a46.86 46.86 0 0 0 7.24 12.379c3.116 3.835 6.727 7.03 10.656 9.603l-11.898 9.67zm34.253-17.172a31.53 31.53 0 0 1-21.371-11.557c-5.348-6.58-7.812-14.85-6.94-23.285a31.53 31.53 0 0 1 11.557-21.371c5.714-4.642 12.698-7.112 19.96-7.112a32.32 32.32 0 0 1 3.324.172 31.53 31.53 0 0 1 21.371 11.557c5.347 6.58 7.812 14.85 6.94 23.285a31.53 31.53 0 0 1-11.557 21.371c-6.58 5.348-14.848 7.813-23.284 6.94zm45.69 47.217l-27.926-34.368c5.308-1.726 10.393-4.426 14.977-8.15a46.73 46.73 0 0 0 11.057-12.975l27.914 34.35c-5.518 1.457-10.715 4.074-15.278 7.782a40.64 40.64 0 0 0-10.744 13.361zm52.704 38.276c-11.03 8.96-27.3 7.28-36.25-3.75a25.6 25.6 0 0 1 3.749-36.25c4.768-3.875 10.514-5.76 16.227-5.76 7.498 0 14.938 3.25 20.024 9.508 8.96 11.028 7.278 27.29-3.75 36.25z"/></svg>